<?xml version="1.0" encoding="UTF-8"?>
<svg width="42px" height="42px" viewBox="0 0 42 42" version="1.1" xmlns="http://www.w3.org/2000/svg" xmlns:xlink="http://www.w3.org/1999/xlink">
    <!-- Generator: Sketch 55.1 (78136) - https://sketchapp.com -->
    <title>Icon / Subjects / Physics</title>
    <desc>Created with Sketch.</desc>
    <g id="Icon-/-Subjects-/-Physics" stroke="none" stroke-width="1" fill="none" fill-rule="evenodd">
        <g id="Physics">
            <circle id="bg" fill="#2F91EA" cx="21" cy="21" r="21"></circle>
            <path d="M12.1209519,16.6221272 C12.4334752,15.9862459 13.392233,15.6341463 14.8012362,15.6341463 C15.5904899,15.6341463 16.5227627,15.7445059 17.5609756,15.9757355 C17.4020655,16.8060598 17.2802344,17.6889364 17.2113733,18.6138547 C16.1254874,19.2865225 15.1455415,20.0012321 14.3086148,20.7317073 C12.4705542,19.0658034 11.6760035,17.5207694 12.1209519,16.6221272 Z M17.0264228,21.2146341 C17.0315041,21.8334495 17.0569106,22.4466899 17.097561,23.0487805 C16.2134146,22.441115 15.4410569,21.8222997 14.7804878,21.2090592 C15.4512195,20.5679443 16.2184959,19.943554 17.0569106,19.3414634 C17.0315041,19.9547038 17.0162602,20.5790941 17.0264228,21.2146341 Z M15.7816587,26.6857384 C13.8558098,26.912094 12.5265554,26.5857207 12.1288257,25.801372 C11.7310961,25.0170232 12.2648911,23.7431145 13.583679,22.3165473 C13.7877771,22.0954557 14.0075751,21.8796282 14.2378396,21.6585366 C15.0856318,22.3849804 16.0694894,23.0903679 17.1580127,23.7536427 C17.2522118,24.6643295 17.3830439,25.5381677 17.5609756,26.359365 C16.943448,26.5120235 16.3468535,26.6173052 15.7816587,26.6857384 Z M24.6131836,16.097561 C24.7604193,16.6836792 24.8850032,17.307919 24.9756098,17.9512195 C24.4432964,17.6986645 23.8939943,17.4556399 23.3277035,17.2221456 C22.9482887,17.0648944 22.5745368,16.9171735 22.195122,16.778983 C23.0219065,16.5073672 23.8317023,16.2786382 24.6131836,16.097561 Z M18.9804661,13.8823085 C19.6444878,12.0599794 20.5387751,11.0104431 21.4330623,11 L21.4491274,11 C22.3434146,11 23.2537669,12.0286499 23.9606287,13.8248712 C24.1694743,14.3522501 24.3515447,14.9318447 24.5121951,15.5479904 C23.5536477,15.8038475 22.5522602,16.1432497 21.5348076,16.5609756 C20.495935,16.1536929 19.4677724,15.8195122 18.4878049,15.5740982 C18.6270352,14.9683957 18.7876856,14.4044658 18.9804661,13.8823085 Z M18.3395872,16.097561 C19.1163227,16.3071455 19.9437148,16.5807697 20.804878,16.9184336 C20.4333959,17.0930874 20.0562852,17.2793847 19.684803,17.4773257 C19.1163227,17.774237 18.5590994,18.0886138 18.0243902,18.4146341 C18.1031895,17.6054051 18.2045028,16.8311068 18.3395872,16.097561 Z M18.3868164,26.2926829 C18.2395807,25.7017995 18.1149968,25.0823249 18.0243902,24.4390244 C18.5567036,24.6915794 19.1060057,24.9346041 19.6722965,25.1680983 C20.0517113,25.3253496 20.4254632,25.4730704 20.804878,25.6112609 C19.9780935,25.8828767 19.1682977,26.1116057 18.3868164,26.2926829 Z M21.5642031,31.3902439 L21.5481523,31.3902439 C20.6546593,31.3902439 19.7451155,30.361594 19.0388814,28.5653727 C18.8302214,28.0379938 18.6483126,27.4583992 18.4878049,26.8422535 C19.445501,26.5863964 20.4459992,26.2469942 21.4625482,25.8292683 C22.5004982,26.236551 23.5277477,26.5707317 24.5121951,26.8213672 C23.8541134,29.6619031 22.6931075,31.3745792 21.5642031,31.3902439 Z M24.6610495,26.2926829 C23.8634146,26.076734 23.037694,25.8024206 22.195122,25.475579 C22.5658537,25.3004853 22.9365854,25.1137187 23.3129342,24.9152792 C23.8858832,24.61762 24.4363636,24.3024513 24.9756098,23.9756098 C24.8969697,24.7985501 24.7902439,25.5747988 24.6610495,26.2926829 Z M24.9181433,23.56168 C24.2893278,23.9320382 23.6277044,24.2865239 22.9442093,24.6198464 C22.3974132,24.8896788 21.8451491,25.1383479 21.298353,25.3658537 C20.7460889,25.1436387 20.1938248,24.9055513 19.6415607,24.6410097 C18.9471296,24.3129781 18.2909743,23.969074 17.6785626,23.6251699 C17.6129471,22.9267801 17.5746714,22.2019361 17.5637354,21.4718013 C17.5527995,20.7310849 17.5746714,20.0009501 17.623883,19.2919786 C18.2526986,18.9216203 18.9143219,18.5671346 19.597817,18.2338122 C20.1446131,17.9639798 20.6968772,17.7153107 21.2436734,17.4878049 C21.7850015,17.704729 22.3372656,17.9481073 22.8949976,18.2126489 C23.5730248,18.5353896 24.2291802,18.8792937 24.8579957,19.2337794 C24.9236113,19.9321692 24.961887,20.6517224 24.9728229,21.387148 C24.9837588,22.1384462 24.961887,22.868581 24.9181433,23.56168 Z M27.2235746,15.7026761 C27.6265375,15.6552324 27.9981008,15.6341463 28.3434976,15.6341463 C29.6570521,15.6341463 30.5571772,15.9662522 30.8711743,16.5882917 C31.2689039,17.3737483 30.7351089,18.6441849 29.416321,20.0727672 C29.2122229,20.2941711 28.9924249,20.5155749 28.7621604,20.7317073 C27.9143682,20.0042374 26.9305106,19.2978536 25.8419873,18.6336419 C25.7477882,17.7216687 25.6169561,16.8465962 25.4390244,16.0242389 C26.0617853,15.8819078 26.6583798,15.7712059 27.2235746,15.7026761 Z M25.9737336,21.1727887 C25.9686411,20.5530414 25.9431788,19.9388775 25.902439,19.3414634 C26.7579737,19.9332942 27.5371214,20.5530414 28.2195122,21.1839553 C27.5473064,21.8204525 26.7834361,22.4513664 25.9380863,23.0487805 C25.9686411,22.4346165 25.9839185,21.8092859 25.9737336,21.1727887 Z M30.8766209,25.7686649 C30.4848175,26.5580622 29.1452732,26.9001343 27.1968453,26.7001537 C26.6409079,26.6422645 26.0532028,26.5422742 25.4390244,26.410708 C25.5978636,25.5792096 25.7196404,24.6950847 25.7884707,23.7741212 C26.8685775,23.1005022 27.8480861,22.3900447 28.6899341,21.6585366 C28.9281929,21.8743052 29.1505679,22.0900737 29.3570589,22.3058423 C30.7177817,23.7162321 31.2684244,24.9792677 30.8766209,25.7686649 Z" id="Shape" fill="#FFFFFF"></path>
        </g>
    </g>
</svg>